# xmcd
#
# Track frame offsets:
#	187
#	22540
#	38430
#	53510
#	67425
#	86172
#	97397
#	111322
#	130480
#	142070
#	156122
#	170490
#	185180
#	201662
#	219812
#	233192
#	250400
#	264705
#	285937
#	298565
#
# Disc length: 4146 seconds
#
# Revision: 1
# Processed by: cddbd v1.5.1PL0 Copyright (c) Steve Scherf et al.
# Submitted via: CDex 1.50Beta5
#
DISCID=37103014
DTITLE=さまざまのオーケストラ - くつろぎのクラシック
DYEAR=1900
DGENRE=Classical
TTITLE0=フランク・ブゥルセル・グランド・オーケストラ/美しく青きドナウ
TTITLE1=”       ”/ウィーンのもりのものがたり
TTITLE2=レイモン・ルフェーブル・グランド・オーケストラ/ゲッコウのソナタ
TTITLE3=”       ”/ゲンソウのアダージョ
TTITLE4=”       ”/しゅよ、人ののぞみのよろこびよ
TTITLE5=”       ”/ヘンデルのラルゴ
TTITLE6=”       ”/朝
TTITLE7=リチャード・クレイダーマン・オーケストラ/エリーゼの為に
TTITLE8=”       ”/別れの曲
TTITLE9=”       ”/ラフマニノフのピアノ協奏曲
TTITLE10=”       ”/ジムノペディ
TTITLE11=アルフレッド・ハウゼ・オーケストラ/ドナウがわのさざなみ
TTITLE12=”       ”/タイスのめいそうきょく
TTITLE13=”       ”/ロマンス へちょうちょう
TTITLE14=”       ”/ハイドンのセレナード
TTITLE15=”       ”/あさのうた
TTITLE16=ニニ・ロッソ (トランペット)/マドンナのほうせき
TTITLE17=”      ”/白鳥
TTITLE18=”      ”/亡き王女のためのパヴァーヌ
TTITLE19=”      ”/ハンガリーでんえんげんそうきょく
EXTD=
EXTT0=
EXTT1=
EXTT2=
EXTT3=
EXTT4=
EXTT5=
EXTT6=
EXTT7=
EXTT8=
EXTT9=
EXTT10=
EXTT11=
EXTT12=
EXTT13=
EXTT14=
EXTT15=
EXTT16=
EXTT17=
EXTT18=
EXTT19=
PLAYORDER=
